<?xml version="1.0" encoding="UTF-8" standalone="no"?>
<svg
   xmlns:dc="http://purl.org/dc/elements/1.1/"
   xmlns:cc="http://creativecommons.org/ns#"
   xmlns:rdf="http://www.w3.org/1999/02/22-rdf-syntax-ns#"
   xmlns:svg="http://www.w3.org/2000/svg"
   xmlns="http://www.w3.org/2000/svg"
   xmlns:sodipodi="http://sodipodi.sourceforge.net/DTD/sodipodi-0.dtd"
   xmlns:inkscape="http://www.inkscape.org/namespaces/inkscape"
   width="22"
   height="22"
   version="1.1"
   viewBox="0 0 22 22"
   id="svg67"
   sodipodi:docname="media.svg"
   inkscape:version="0.92.5 (2060ec1f9f, 2020-04-08)">
  <metadata
     id="metadata71">
    <rdf:RDF>
      <cc:Work
         rdf:about="">
        <dc:format>image/svg+xml</dc:format>
        <dc:type
           rdf:resource="http://purl.org/dc/dcmitype/StillImage" />
        <dc:title />
      </cc:Work>
    </rdf:RDF>
  </metadata>
  <sodipodi:namedview
     pagecolor="#c8c8c8"
     bordercolor="#666666"
     borderopacity="1"
     objecttolerance="10"
     gridtolerance="10"
     guidetolerance="10"
     inkscape:pageopacity="0"
     inkscape:pageshadow="2"
     inkscape:window-width="1920"
     inkscape:window-height="971"
     id="namedview69"
     showgrid="true"
     inkscape:zoom="10.727273"
     inkscape:cx="35.165265"
     inkscape:cy="-16.50135"
     inkscape:window-x="0"
     inkscape:window-y="38"
     inkscape:window-maximized="1"
     inkscape:current-layer="svg67"
     inkscape:snap-bbox="true"
     inkscape:bbox-nodes="true">
    <inkscape:grid
       type="xygrid"
       id="grid878" />
  </sodipodi:namedview>
  <defs
     id="defs3">
    <style
       id="current-color-scheme"
       type="text/css">.ColorScheme-Text { color:#dedede; } .ColorScheme-Highlight { color:#5294e2; } .ColorScheme-ButtonBackground { color:#dedede; }</style>
    <style
       id="style898"
       type="text/css" />
  </defs>
  <g
     style="fill:#000000"
     transform="translate(22,-1030.4)"
     id="media-record">
    <rect
       style="opacity:0.00100002"
       x="0"
       id="rect5"
       height="22"
       width="22"
       y="1030.4" />
    <path
       inkscape:connector-curvature="0"
       style="color:#5294e2;fill:#ff3232;fill-opacity:1;enable-background:new"
       id="path7"
       d="m 11,1035.4 c -3.311,0 -6,2.6888 -6,6 0,3.311 2.689,6 6,6 3.311,0 6,-2.689 6,-6 0,-3.3112 -2.689,-6 -6,-6 z"
       class="ColorScheme-Highlight" />
  </g>
  <g
     style="fill:#000000"
     transform="translate(44,-1030.4)"
     id="media-playback-stop">
    <rect
       style="opacity:0.00100002"
       x="0"
       id="rect10"
       height="22"
       width="22"
       y="1030.4" />
    <path
       inkscape:connector-curvature="0"
       style="color:#dedede;fill:#eaeaea;fill-opacity:1;enable-background:new"
       id="path12"
       d="m 5,1035.4 v 12 h 12 v -12 z"
       class="ColorScheme-Text" />
  </g>
  <g
     style="fill:#000000"
     transform="translate(66,-1030.4)"
     id="media-skip-forward">
    <rect
       style="opacity:0.00100002"
       x="0"
       id="rect15"
       height="22"
       width="22"
       y="1030.4" />
    <path
       inkscape:connector-curvature="0"
       style="color:#dedede;fill:#eaeaea;fill-opacity:1;enable-background:new"
       id="path17"
       d="m 19,1037.4 v 8 h -2 v -8 z m -2,4 -7,4 v -8 z m -7,0 -7,4 v -8 z"
       class="ColorScheme-Text" />
  </g>
  <g
     style="fill:#000000"
     transform="matrix(-1,0,0,1,110,-1030.4)"
     id="media-skip-backward">
    <rect
       style="opacity:0.00100002"
       x="0"
       id="rect20"
       height="22"
       width="22"
       y="1030.4" />
    <path
       inkscape:connector-curvature="0"
       style="color:#dedede;fill:#eaeaea;fill-opacity:1;enable-background:new"
       id="path22"
       d="m 19,1037.4 v 8 h -2 v -8 z m -2,4 -7,4 v -8 z m -7,0 -7,4 v -8 z"
       class="ColorScheme-Text" />
  </g>
  <g
     style="fill:#000000"
     transform="translate(110,-1030.4)"
     id="media-seek-forward">
    <rect
       style="opacity:0.00100002"
       x="0"
       id="rect25"
       height="22"
       width="22"
       y="1030.4" />
    <path
       inkscape:connector-curvature="0"
       style="color:#dedede;fill:#eaeaea;fill-opacity:1;enable-background:new"
       id="path27"
       d="m 11,1037.4 7,4 -7,4 z m 0,4 -7,4 v -8 z"
       class="ColorScheme-Text" />
  </g>
  <g
     style="fill:#000000"
     transform="matrix(-1,0,0,1,154,-1030.4)"
     id="media-seek-backward">
    <rect
       style="opacity:0.00100002"
       x="0"
       id="rect30"
       height="22"
       width="22"
       y="1030.4" />
    <path
       inkscape:connector-curvature="0"
       style="color:#dedede;fill:#eaeaea;fill-opacity:1;enable-background:new"
       id="path32"
       d="m 11,1037.4 7,4 -7,4 z m 0,4 -7,4 v -8 z"
       class="ColorScheme-Text" />
  </g>
  <g
     style="fill:#000000"
     transform="translate(-44,-1030.4)"
     id="media-eject">
    <rect
       style="opacity:0.00100002"
       x="0"
       id="rect35"
       height="22"
       width="22"
       y="1030.4" />
    <path
       inkscape:connector-curvature="0"
       style="color:#dedede;display:block;fill:#eaeaea;fill-opacity:1"
       id="path37"
       display="block"
       d="m 11,1036.4 -5,5 v 1 h 10 v -1 z m -5,8 v 2 h 10 v -2 z"
       class="ColorScheme-Text" />
  </g>
  <g
     style="fill:#000000"
     transform="translate(-22,-1030.4)"
     id="media-playback-pause">
    <rect
       style="opacity:0.00100002"
       x="0"
       id="rect40"
       height="22"
       width="22"
       y="1030.4" />
    <path
       inkscape:connector-curvature="0"
       style="color:#dedede;fill:#eaeaea;fill-opacity:1;enable-background:new"
       id="path42"
       d="m 5,1035.4 v 12 h 4 v -12 z m 8,0 v 12 h 4 v -12 z"
       class="ColorScheme-Text" />
  </g>
  <g
     style="fill:#000000"
     transform="translate(0,-1030.4)"
     id="media-playback-start">
    <rect
       style="opacity:0.00100002"
       x="0"
       id="rect45"
       height="22"
       width="22"
       y="1030.4" />
    <path
       inkscape:connector-curvature="0"
       style="color:#dedede;fill:#eaeaea;fill-opacity:1;enable-background:new"
       id="path47"
       d="m 6,1035.4 v 12 l 11,-6 -9.8992,-5.3996 z"
       class="ColorScheme-Text" />
  </g>
  <path
     class="ColorScheme-Text"
     d="M 12.9999,72 H 15 v 6.0003 h -2.0001 z m -4.0002,0 h 2.0001 v 6.0003 H 8.9997 Z m 3.00015,-5.0001 c -4.4322,0 -8.00025,3.56805 -8.00025,8.00025 0,4.4322 3.5682,8.00025 8.00025,8.00025 4.4322,0 8.00025,-3.56805 8.00025,-8.00025 0,-4.4322 -3.5682,-8.00025 -8.00025,-8.00025 z"
     id="path52"
     style="color:#dedede;fill:#eaeaea;fill-opacity:1;stroke-width:1.5"
     inkscape:connector-curvature="0" />
  <path
     d="m 35.99996,66.99984 c -4.432489,0 -8.00016,3.567671 -8.00016,8.00016 0,4.432489 3.567671,8.00016 8.00016,8.00016 4.432489,0 8.00216,-3.567671 8.00216,-8.00016 0,-4.432489 -3.569671,-8.00016 -8.00216,-8.00016 z M 33.99992,71.99994 38,75 33.99992,78.00006 Z"
     id="path57"
     style="color:#eaeaea;fill:#eaeaea;fill-opacity:1;stroke-width:1.00002003"
     inkscape:connector-curvature="0" />
  <path
     class="ColorScheme-Text"
     d="M 56.9997,72 H 63 v 6.0003 h -6.0003 z m 3.00015,-5.0001 c -4.4322,0 -8.00025,3.56805 -8.00025,8.00025 0,4.4322 3.5682,8.00025 8.00025,8.00025 4.4322,0 8.00025,-3.56805 8.00025,-8.00025 0,-4.4322 -3.5682,-8.00025 -8.00025,-8.00025 z"
     id="path62"
     style="color:#dedede;fill:#eaeaea;fill-opacity:1;stroke-width:1.5"
     inkscape:connector-curvature="0" />
  <g
     id="media-playback-stopped">
    <rect
       style="color:#dedede;opacity:0.01000001;fill:#ed1515;fill-opacity:0.00392163;stroke-width:1.5"
       id="rect60"
       height="22.0005"
       width="22.0005"
       y="27.9"
       x="49.000801" />
    <g
       transform="translate(-0.49894905,-19.599751)"
       id="g993">
      <circle
         style="opacity:0.5;fill:#eaeaea;fill-opacity:1;stroke:none;stroke-width:5;stroke-miterlimit:4;stroke-dasharray:none;stroke-opacity:1"
         id="path886"
         cx="60.5"
         cy="58.5"
         r="7.5" />
      <circle
         r="6.5"
         cy="58.5"
         cx="60.5"
         id="circle888"
         style="opacity:1;fill:#eaeaea;fill-opacity:1;stroke:none;stroke-width:4.33333349;stroke-miterlimit:4;stroke-dasharray:none;stroke-opacity:1" />
      <circle
         style="opacity:1;fill:#323232;fill-opacity:1;stroke:none;stroke-width:2.79999995;stroke-miterlimit:4;stroke-dasharray:none;stroke-opacity:1"
         id="path890"
         cx="60.5"
         cy="58.5"
         r="3.5" />
    </g>
  </g>
  <g
     id="media-playback-playing">
    <rect
       style="color:#dedede;opacity:0.01000001;fill:#ed1515;fill-opacity:0.00392163;stroke-width:1.5"
       id="rect55"
       height="22.0005"
       width="22.0005"
       y="28"
       x="25" />
    <g
       transform="translate(2.4986267e-4,2.4986267e-4)"
       id="g1057">
      <circle
         r="8.0002499"
         cy="39"
         cx="36"
         id="circle892"
         style="opacity:0.5;fill:#eaeaea;fill-opacity:1;stroke:none;stroke-width:5.33349991;stroke-miterlimit:4;stroke-dasharray:none;stroke-opacity:1" />
      <circle
         style="opacity:1;fill:#eaeaea;fill-opacity:1;stroke:none;stroke-width:4.66650057;stroke-miterlimit:4;stroke-dasharray:none;stroke-opacity:1"
         id="circle894"
         cx="36"
         cy="39"
         r="6.9997501" />
      <g
         id="g940"
         transform="translate(-0.5,-19)">
        <rect
           ry="0.5"
           y="57"
           x="31"
           height="2"
           width="1"
           id="rect920"
           style="opacity:1;fill:#323232;fill-opacity:1;stroke:none;stroke-width:2.82842708;stroke-miterlimit:4;stroke-dasharray:none;stroke-opacity:1" />
        <rect
           style="opacity:1;fill:#323232;fill-opacity:1;stroke:none;stroke-width:2.82842708;stroke-miterlimit:4;stroke-dasharray:none;stroke-opacity:1"
           id="rect922"
           width="1"
           height="2"
           x="33"
           y="57"
           ry="0.5" />
        <rect
           ry="0.5"
           y="55"
           x="35"
           height="6"
           width="1"
           id="rect924"
           style="opacity:1;fill:#323232;fill-opacity:1;stroke:none;stroke-width:4.89897966;stroke-miterlimit:4;stroke-dasharray:none;stroke-opacity:1" />
        <rect
           ry="0.5"
           y="53"
           x="37"
           height="10"
           width="1"
           id="rect928"
           style="opacity:1;fill:#323232;fill-opacity:1;stroke:none;stroke-width:6.3245554;stroke-miterlimit:4;stroke-dasharray:none;stroke-opacity:1" />
        <rect
           ry="0.5"
           y="56"
           x="39"
           height="4"
           width="1"
           id="rect930"
           style="opacity:1;fill:#323232;fill-opacity:1;stroke:none;stroke-width:4;stroke-miterlimit:4;stroke-dasharray:none;stroke-opacity:1" />
        <rect
           ry="0.5"
           y="57"
           x="41"
           height="2"
           width="1"
           id="rect932"
           style="opacity:1;fill:#323232;fill-opacity:1;stroke:none;stroke-width:2.82842708;stroke-miterlimit:4;stroke-dasharray:none;stroke-opacity:1" />
      </g>
    </g>
  </g>
  <g
     id="media-playback-paused">
    <rect
       style="color:#dedede;opacity:0.01000001;fill:#ed1515;fill-opacity:0.00392163;stroke-width:1.5"
       id="rect50"
       height="22.0005"
       width="22.0005"
       y="27.9"
       x="0.99944985" />
    <g
       transform="translate(-0.50030029,-19.599751)"
       id="g988">
      <circle
         r="7.5"
         cy="58.5"
         cx="12.5"
         id="circle973"
         style="opacity:0.5;fill:#eaeaea;fill-opacity:1;stroke:none;stroke-width:5;stroke-miterlimit:4;stroke-dasharray:none;stroke-opacity:1" />
      <circle
         style="opacity:1;fill:#eaeaea;fill-opacity:1;stroke:none;stroke-width:4.33333349;stroke-miterlimit:4;stroke-dasharray:none;stroke-opacity:1"
         id="circle975"
         cx="12.5"
         cy="58.5"
         r="6.5" />
      <rect
         style="opacity:1;fill:#323232;fill-opacity:1;stroke:none;stroke-width:1.80906808;stroke-miterlimit:4;stroke-dasharray:none;stroke-opacity:1"
         id="rect983"
         width="9"
         height="1"
         x="8"
         y="58"
         ry="0.5" />
    </g>
  </g>
</svg>
