<?xml version="1.0" encoding="UTF-8" standalone="no"?>
<svg
   xmlns:dc="http://purl.org/dc/elements/1.1/"
   xmlns:cc="http://creativecommons.org/ns#"
   xmlns:rdf="http://www.w3.org/1999/02/22-rdf-syntax-ns#"
   xmlns:svg="http://www.w3.org/2000/svg"
   xmlns="http://www.w3.org/2000/svg"
   xmlns:sodipodi="http://sodipodi.sourceforge.net/DTD/sodipodi-0.dtd"
   xmlns:inkscape="http://www.inkscape.org/namespaces/inkscape"
   inkscape:version="1.0 (4035a4fb49, 2020-05-01)"
   sodipodi:docname="media.svg"
   id="svg67"
   viewBox="0 0 22 22"
   version="1.1"
   height="22"
   width="22">
  <metadata
     id="metadata71">
    <rdf:RDF>
      <cc:Work
         rdf:about="">
        <dc:format>image/svg+xml</dc:format>
        <dc:type
           rdf:resource="http://purl.org/dc/dcmitype/StillImage" />
        <dc:title />
      </cc:Work>
    </rdf:RDF>
  </metadata>
  <sodipodi:namedview
     inkscape:document-rotation="0"
     inkscape:bbox-nodes="true"
     inkscape:snap-bbox="true"
     inkscape:current-layer="svg67"
     inkscape:window-maximized="1"
     inkscape:window-y="0"
     inkscape:window-x="0"
     inkscape:cy="30.298426"
     inkscape:cx="16.496664"
     inkscape:zoom="5.3636365"
     showgrid="true"
     id="namedview69"
     inkscape:window-height="1010"
     inkscape:window-width="1920"
     inkscape:pageshadow="2"
     inkscape:pageopacity="0"
     guidetolerance="10"
     gridtolerance="10"
     objecttolerance="10"
     borderopacity="1"
     bordercolor="#666666"
     pagecolor="#c8c8c8">
    <inkscape:grid
       id="grid878"
       type="xygrid" />
  </sodipodi:namedview>
  <defs
     id="defs3">
    <style
       type="text/css"
       id="current-color-scheme">.ColorScheme-Text { color:#dedede; } .ColorScheme-Highlight { color:#5294e2; } .ColorScheme-ButtonBackground { color:#dedede; }</style>
    <style
       type="text/css"
       id="style898" />
  </defs>
  <g
     id="media-record"
     transform="translate(22,-1030.4)"
     style="fill:#000000">
    <rect
       y="1030.4"
       width="22"
       height="22"
       id="rect5"
       x="0"
       style="opacity:0.00100002" />
    <path
       class="ColorScheme-Highlight"
       d="m 11,1035.4 c -3.311,0 -6,2.6888 -6,6 0,3.311 2.689,6 6,6 3.311,0 6,-2.689 6,-6 0,-3.3112 -2.689,-6 -6,-6 z"
       id="path7"
       style="color:#5294e2;fill:#ff3232;fill-opacity:1;enable-background:new"
       inkscape:connector-curvature="0" />
  </g>
  <g
     id="media-playback-stop"
     transform="translate(44,-1030.4)"
     style="fill:#000000">
    <rect
       y="1030.4"
       width="22"
       height="22"
       id="rect10"
       x="0"
       style="opacity:0.00100002" />
    <path
       class="ColorScheme-Text"
       d="m 5,1035.4 v 12 h 12 v -12 z"
       id="path12"
       style="color:#dedede;fill:#eaeaea;fill-opacity:1;enable-background:new"
       inkscape:connector-curvature="0" />
  </g>
  <g
     id="media-skip-forward"
     transform="translate(66,-1030.4)"
     style="fill:#000000">
    <rect
       y="1030.4"
       width="22"
       height="22"
       id="rect15"
       x="0"
       style="opacity:0.00100002" />
    <path
       class="ColorScheme-Text"
       d="m 19,1037.4 v 8 h -2 v -8 z m -2,4 -7,4 v -8 z m -7,0 -7,4 v -8 z"
       id="path17"
       style="color:#dedede;fill:#eaeaea;fill-opacity:1;enable-background:new"
       inkscape:connector-curvature="0" />
  </g>
  <g
     id="media-skip-backward"
     transform="matrix(-1,0,0,1,110,-1030.4)"
     style="fill:#000000">
    <rect
       y="1030.4"
       width="22"
       height="22"
       id="rect20"
       x="0"
       style="opacity:0.00100002" />
    <path
       class="ColorScheme-Text"
       d="m 19,1037.4 v 8 h -2 v -8 z m -2,4 -7,4 v -8 z m -7,0 -7,4 v -8 z"
       id="path22"
       style="color:#dedede;fill:#eaeaea;fill-opacity:1;enable-background:new"
       inkscape:connector-curvature="0" />
  </g>
  <g
     id="media-seek-forward"
     transform="translate(110,-1030.4)"
     style="fill:#000000">
    <rect
       y="1030.4"
       width="22"
       height="22"
       id="rect25"
       x="0"
       style="opacity:0.00100002" />
    <path
       class="ColorScheme-Text"
       d="m 11,1037.4 7,4 -7,4 z m 0,4 -7,4 v -8 z"
       id="path27"
       style="color:#dedede;fill:#eaeaea;fill-opacity:1;enable-background:new"
       inkscape:connector-curvature="0" />
  </g>
  <g
     id="media-seek-backward"
     transform="matrix(-1,0,0,1,154,-1030.4)"
     style="fill:#000000">
    <rect
       y="1030.4"
       width="22"
       height="22"
       id="rect30"
       x="0"
       style="opacity:0.00100002" />
    <path
       class="ColorScheme-Text"
       d="m 11,1037.4 7,4 -7,4 z m 0,4 -7,4 v -8 z"
       id="path32"
       style="color:#dedede;fill:#eaeaea;fill-opacity:1;enable-background:new"
       inkscape:connector-curvature="0" />
  </g>
  <g
     id="media-eject"
     transform="translate(-44,-1030.4)"
     style="fill:#000000">
    <rect
       y="1030.4"
       width="22"
       height="22"
       id="rect35"
       x="0"
       style="opacity:0.00100002" />
    <path
       class="ColorScheme-Text"
       d="m 11,1036.4 -5,5 v 1 h 10 v -1 z m -5,8 v 2 h 10 v -2 z"
       display="block"
       id="path37"
       style="color:#dedede;display:block;fill:#eaeaea;fill-opacity:1"
       inkscape:connector-curvature="0" />
  </g>
  <g
     id="media-playback-pause"
     transform="translate(-22,-1030.4)"
     style="fill:#000000">
    <rect
       y="1030.4"
       width="22"
       height="22"
       id="rect40"
       x="0"
       style="opacity:0.00100002" />
    <path
       class="ColorScheme-Text"
       d="m 5,1035.4 v 12 h 4 v -12 z m 8,0 v 12 h 4 v -12 z"
       id="path42"
       style="color:#dedede;fill:#eaeaea;fill-opacity:1;enable-background:new"
       inkscape:connector-curvature="0" />
  </g>
  <g
     id="media-playback-start"
     transform="translate(0,-1030.4)"
     style="fill:#000000">
    <rect
       y="1030.4"
       width="22"
       height="22"
       id="rect45"
       x="0"
       style="opacity:0.00100002" />
    <path
       class="ColorScheme-Text"
       d="m 6,1035.4 v 12 l 11,-6 -9.8992,-5.3996 z"
       id="path47"
       style="color:#dedede;fill:#eaeaea;fill-opacity:1;enable-background:new"
       inkscape:connector-curvature="0" />
  </g>
  <path
     inkscape:connector-curvature="0"
     style="color:#dedede;fill:#eaeaea;fill-opacity:1;stroke-width:1.5"
     id="path52"
     d="M 12.9999,72 H 15 v 6.0003 h -2.0001 z m -4.0002,0 h 2.0001 v 6.0003 H 8.9997 Z m 3.00015,-5.0001 c -4.4322,0 -8.00025,3.56805 -8.00025,8.00025 0,4.4322 3.5682,8.00025 8.00025,8.00025 4.4322,0 8.00025,-3.56805 8.00025,-8.00025 0,-4.4322 -3.5682,-8.00025 -8.00025,-8.00025 z"
     class="ColorScheme-Text" />
  <path
     inkscape:connector-curvature="0"
     style="color:#eaeaea;fill:#eaeaea;fill-opacity:1;stroke-width:1.00002003"
     id="path57"
     d="m 35.99996,66.99984 c -4.432489,0 -8.00016,3.567671 -8.00016,8.00016 0,4.432489 3.567671,8.00016 8.00016,8.00016 4.432489,0 8.00216,-3.567671 8.00216,-8.00016 0,-4.432489 -3.569671,-8.00016 -8.00216,-8.00016 z M 33.99992,71.99994 38,75 33.99992,78.00006 Z" />
  <path
     inkscape:connector-curvature="0"
     style="color:#dedede;fill:#eaeaea;fill-opacity:1;stroke-width:1.5"
     id="path62"
     d="M 56.9997,72 H 63 v 6.0003 h -6.0003 z m 3.00015,-5.0001 c -4.4322,0 -8.00025,3.56805 -8.00025,8.00025 0,4.4322 3.5682,8.00025 8.00025,8.00025 4.4322,0 8.00025,-3.56805 8.00025,-8.00025 0,-4.4322 -3.5682,-8.00025 -8.00025,-8.00025 z"
     class="ColorScheme-Text" />
  <g
     id="media-playback-stopped">
    <rect
       x="49.000801"
       y="27.9"
       width="22.0005"
       height="22.0005"
       id="rect60"
       style="color:#dedede;opacity:0.01000001;fill:#ed1515;fill-opacity:0.00392163;stroke-width:1.5" />
    <g
       id="g993"
       transform="translate(-0.49894905,-19.599751)">
      <circle
         r="7.5"
         cy="58.5"
         cx="60.5"
         id="path886"
         style="opacity:0.5;fill:#eaeaea;fill-opacity:1;stroke:none;stroke-width:5;stroke-miterlimit:4;stroke-dasharray:none;stroke-opacity:1" />
      <circle
         style="opacity:1;fill:#eaeaea;fill-opacity:1;stroke:none;stroke-width:4.33333349;stroke-miterlimit:4;stroke-dasharray:none;stroke-opacity:1"
         id="circle888"
         cx="60.5"
         cy="58.5"
         r="6.5" />
      <circle
         r="3.5"
         cy="58.5"
         cx="60.5"
         id="path890"
         style="opacity:1;fill:#ff9b00;fill-opacity:1;stroke:none;stroke-width:2.79999995;stroke-miterlimit:4;stroke-dasharray:none;stroke-opacity:1" />
    </g>
  </g>
  <g
     id="media-playback-playing">
    <rect
       x="25"
       y="28"
       width="22.0005"
       height="22.0005"
       id="rect55"
       style="color:#dedede;opacity:0.01000001;fill:#ed1515;fill-opacity:0.00392163;stroke-width:1.5" />
    <g
       id="g1057"
       transform="translate(2.4986267e-4,2.4986267e-4)">
      <circle
         style="opacity:0.5;fill:#eaeaea;fill-opacity:1;stroke:none;stroke-width:5.33349991;stroke-miterlimit:4;stroke-dasharray:none;stroke-opacity:1"
         id="circle892"
         cx="36"
         cy="39"
         r="8.0002499" />
      <circle
         r="6.9997501"
         cy="39"
         cx="36"
         id="circle894"
         style="opacity:1;fill:#eaeaea;fill-opacity:1;stroke:none;stroke-width:4.66650057;stroke-miterlimit:4;stroke-dasharray:none;stroke-opacity:1" />
      <g
         transform="translate(-0.5,-19)"
         id="g940">
        <rect
           style="opacity:1;fill:#ff9b00;fill-opacity:1;stroke:none;stroke-width:2.82842708;stroke-miterlimit:4;stroke-dasharray:none;stroke-opacity:1"
           id="rect920"
           width="1"
           height="2"
           x="31"
           y="57"
           ry="0.5" />
        <rect
           ry="0.5"
           y="57"
           x="33"
           height="2"
           width="1"
           id="rect922"
           style="opacity:1;fill:#ff9b00;fill-opacity:1;stroke:none;stroke-width:2.82842708;stroke-miterlimit:4;stroke-dasharray:none;stroke-opacity:1" />
        <rect
           style="opacity:1;fill:#ff9b00;fill-opacity:1;stroke:none;stroke-width:4.89897966;stroke-miterlimit:4;stroke-dasharray:none;stroke-opacity:1"
           id="rect924"
           width="1"
           height="6"
           x="35"
           y="55"
           ry="0.5" />
        <rect
           style="opacity:1;fill:#ff9b00;fill-opacity:1;stroke:none;stroke-width:6.3245554;stroke-miterlimit:4;stroke-dasharray:none;stroke-opacity:1"
           id="rect928"
           width="1"
           height="10"
           x="37"
           y="53"
           ry="0.5" />
        <rect
           style="opacity:1;fill:#ff9b00;fill-opacity:1;stroke:none;stroke-width:4;stroke-miterlimit:4;stroke-dasharray:none;stroke-opacity:1"
           id="rect930"
           width="1"
           height="4"
           x="39"
           y="56"
           ry="0.5" />
        <rect
           style="opacity:1;fill:#ff9b00;fill-opacity:1;stroke:none;stroke-width:2.82842708;stroke-miterlimit:4;stroke-dasharray:none;stroke-opacity:1"
           id="rect932"
           width="1"
           height="2"
           x="41"
           y="57"
           ry="0.5" />
      </g>
    </g>
  </g>
  <g
     id="media-playback-paused">
    <rect
       x="0.99944985"
       y="27.9"
       width="22.0005"
       height="22.0005"
       id="rect50"
       style="color:#dedede;opacity:0.01000001;fill:#ed1515;fill-opacity:0.00392163;stroke-width:1.5" />
    <g
       id="g988"
       transform="translate(-0.50030029,-19.599751)">
      <circle
         style="opacity:0.5;fill:#eaeaea;fill-opacity:1;stroke:none;stroke-width:5;stroke-miterlimit:4;stroke-dasharray:none;stroke-opacity:1"
         id="circle973"
         cx="12.5"
         cy="58.5"
         r="7.5" />
      <circle
         r="6.5"
         cy="58.5"
         cx="12.5"
         id="circle975"
         style="opacity:1;fill:#eaeaea;fill-opacity:1;stroke:none;stroke-width:4.33333349;stroke-miterlimit:4;stroke-dasharray:none;stroke-opacity:1" />
      <rect
         ry="0.5"
         y="58"
         x="8"
         height="1"
         width="9"
         id="rect983"
         style="opacity:1;fill:#ff9b00;fill-opacity:1;stroke:none;stroke-width:1.80906808;stroke-miterlimit:4;stroke-dasharray:none;stroke-opacity:1" />
    </g>
  </g>
</svg>
